<svg width="5930" height="5930" viewBox="0 0 5930 5930" fill="none" xmlns="http://www.w3.org/2000/svg">
<path fill-rule="evenodd" clip-rule="evenodd" d="M2965 4419.24C3768.15 4419.24 4419.24 3768.15 4419.24 2965C4419.24 2161.85 3768.15 1510.76 2965 1510.76C2161.85 1510.76 1510.76 2161.85 1510.76 2965C1510.76 3768.15 2161.85 4419.24 2965 4419.24ZM2965 3715.11C3379.27 3715.11 3715.11 3379.27 3715.11 2965C3715.11 2550.72 3379.27 2214.89 2965 2214.89C2550.72 2214.89 2214.89 2550.72 2214.89 2965C2214.89 3379.27 2550.72 3715.11 2965 3715.11Z" fill="#EF7272"/>
<path opacity="0.7" fill-rule="evenodd" clip-rule="evenodd" d="M2965 4419.24C3768.15 4419.24 4419.24 3768.15 4419.24 2965C4419.24 2161.85 3768.15 1510.76 2965 1510.76C2161.85 1510.76 1510.76 2161.85 1510.76 2965C1510.76 3768.15 2161.85 4419.24 2965 4419.24ZM2965 3715.11C3379.27 3715.11 3715.11 3379.27 3715.11 2965C3715.11 2550.72 3379.27 2214.89 2965 2214.89C2550.72 2214.89 2214.89 2550.72 2214.89 2965C2214.89 3379.27 2550.72 3715.11 2965 3715.11Z" fill="#46FFA6"/>
<path opacity="0.7" fill-rule="evenodd" clip-rule="evenodd" d="M4340.2 2965C4340.2 3724.51 3724.5 4340.21 2965 4340.21C2205.5 4340.21 1589.8 3724.51 1589.8 2965C1589.8 2205.5 2205.5 1589.8 2965 1589.8C3724.5 1589.8 4340.2 2205.5 4340.2 2965ZM2965 4098.52C3591.02 4098.52 4098.52 3591.02 4098.52 2965C4098.52 2338.98 3591.02 1831.49 2965 1831.49C2338.98 1831.49 1831.49 2338.98 1831.49 2965C1831.49 3591.02 2338.98 4098.52 2965 4098.52Z" fill="url(#paint0_linear_506_79)"/>
<path opacity="0.7" fill-rule="evenodd" clip-rule="evenodd" d="M4419.24 2965C4419.24 3768.15 3768.15 4419.24 2965 4419.24C2161.85 4419.24 1510.76 3768.15 1510.76 2965C1510.76 2161.85 2161.85 1510.76 2965 1510.76C3768.15 1510.76 4419.24 2161.85 4419.24 2965ZM2965 4163.66C3627 4163.66 4163.66 3627 4163.66 2965C4163.66 2303 3627 1766.34 2965 1766.34C2303 1766.34 1766.34 2303 1766.34 2965C1766.34 3627 2303 4163.66 2965 4163.66Z" fill="url(#paint1_linear_506_79)"/>
<path opacity="0.7" fill-rule="evenodd" clip-rule="evenodd" d="M3855.94 2965C3855.94 3457.05 3457.05 3855.94 2965 3855.94C2472.95 3855.94 2074.06 3457.05 2074.06 2965C2074.06 2472.95 2472.95 2074.06 2965 2074.06C3457.05 2074.06 3855.94 2472.95 3855.94 2965ZM2965 3699.36C3370.57 3699.36 3699.36 3370.57 3699.36 2965C3699.36 2559.42 3370.57 2230.64 2965 2230.64C2559.43 2230.64 2230.64 2559.42 2230.64 2965C2230.64 3370.57 2559.43 3699.36 2965 3699.36Z" fill="#BCD611"/>
<path opacity="0.7" fill-rule="evenodd" clip-rule="evenodd" d="M4011.13 2965C4011.13 3542.76 3542.76 4011.13 2965 4011.13C2387.24 4011.13 1918.87 3542.76 1918.87 2965C1918.87 2387.24 2387.24 1918.87 2965 1918.87C3542.76 1918.87 4011.13 2387.24 4011.13 2965ZM2965 3827.28C3441.22 3827.28 3827.28 3441.22 3827.28 2965C3827.28 2488.78 3441.22 2102.72 2965 2102.72C2488.78 2102.72 2102.72 2488.78 2102.72 2965C2102.72 3441.22 2488.78 3827.28 2965 3827.28Z" fill="url(#paint2_linear_506_79)"/>
<path opacity="0.7" fill-rule="evenodd" clip-rule="evenodd" d="M3797.02 2965C3797.02 3424.51 3424.51 3797.02 2965 3797.02C2505.49 3797.02 2132.98 3424.51 2132.98 2965C2132.98 2505.49 2505.49 2132.98 2965 2132.98C3424.51 2132.98 3797.02 2505.49 3797.02 2965ZM2965 3650.79C3343.75 3650.79 3650.79 3343.75 3650.79 2965C3650.79 2586.25 3343.75 2279.2 2965 2279.2C2586.25 2279.2 2279.21 2586.25 2279.21 2965C2279.21 3343.75 2586.25 3650.79 2965 3650.79Z" fill="url(#paint3_linear_506_79)"/>
<path opacity="0.7" fill-rule="evenodd" clip-rule="evenodd" d="M4085.86 2965C4085.86 3584.03 3584.03 4085.85 2965 4085.85C2345.97 4085.85 1844.14 3584.03 1844.14 2965C1844.14 2345.97 2345.97 1844.14 2965 1844.14C3584.03 1844.14 4085.86 2345.97 4085.86 2965ZM2965 3888.87C3475.24 3888.87 3888.87 3475.24 3888.87 2965C3888.87 2454.76 3475.24 2041.13 2965 2041.13C2454.76 2041.13 2041.13 2454.76 2041.13 2965C2041.13 3475.24 2454.76 3888.87 2965 3888.87Z" fill="url(#paint4_linear_506_79)"/>
<path opacity="0.7" fill-rule="evenodd" clip-rule="evenodd" d="M4263.33 2965C4263.33 3682.05 3682.05 4263.33 2965 4263.33C2247.95 4263.33 1666.67 3682.05 1666.67 2965C1666.67 2247.96 2247.95 1666.68 2965 1666.68C3682.05 1666.68 4263.33 2247.96 4263.33 2965ZM2965 4035.15C3556.03 4035.15 4035.15 3556.03 4035.15 2965C4035.15 2373.98 3556.03 1894.85 2965 1894.85C2373.97 1894.85 1894.85 2373.98 1894.85 2965C1894.85 3556.03 2373.97 4035.15 2965 4035.15Z" fill="#58A71A"/>
<path opacity="0.7" fill-rule="evenodd" clip-rule="evenodd" d="M4203.69 2965C4203.69 3649.11 3649.11 4203.69 2965 4203.69C2280.89 4203.69 1726.31 3649.11 1726.31 2965C1726.31 2280.89 2280.89 1726.31 2965 1726.31C3649.11 1726.31 4203.69 2280.89 4203.69 2965ZM2965 3985.99C3528.88 3985.99 3985.99 3528.88 3985.99 2965C3985.99 2401.12 3528.88 1944.01 2965 1944.01C2401.12 1944.01 1944.01 2401.12 1944.01 2965C1944.01 3528.88 2401.12 3985.99 2965 3985.99Z" fill="url(#paint5_linear_506_79)"/>
<g style="mix-blend-mode:multiply">
<path fill-rule="evenodd" clip-rule="evenodd" d="M2965 5930C4602.52 5930 5930 4602.52 5930 2965C5930 1327.48 4602.52 0 2965 0C1327.48 0 0 1327.48 0 2965C0 4602.52 1327.48 5930 2965 5930ZM2965 4494.38C3809.65 4494.38 4494.38 3809.65 4494.38 2965C4494.38 2120.35 3809.65 1435.62 2965 1435.62C2120.35 1435.62 1435.62 2120.35 1435.62 2965C1435.62 3809.65 2120.35 4494.38 2965 4494.38Z" fill="#EF7272"/>
<path opacity="0.7" fill-rule="evenodd" clip-rule="evenodd" d="M2965 5930C4602.52 5930 5930 4602.52 5930 2965C5930 1327.48 4602.52 0 2965 0C1327.48 0 0 1327.48 0 2965C0 4602.52 1327.48 5930 2965 5930ZM2965 4494.38C3809.65 4494.38 4494.38 3809.65 4494.38 2965C4494.38 2120.35 3809.65 1435.62 2965 1435.62C2120.35 1435.62 1435.62 2120.35 1435.62 2965C1435.62 3809.65 2120.35 4494.38 2965 4494.38Z" fill="#46FFA6"/>
<path opacity="0.7" fill-rule="evenodd" clip-rule="evenodd" d="M5768.86 2965C5768.86 4513.53 4513.53 5768.86 2965 5768.86C1416.47 5768.86 161.142 4513.53 161.142 2965C161.142 1416.47 1416.47 161.142 2965 161.142C4513.53 161.142 5768.86 1416.47 5768.86 2965ZM2965 5276.09C4241.38 5276.09 5276.09 4241.38 5276.09 2965C5276.09 1688.62 4241.38 653.915 2965 653.915C1688.62 653.915 653.915 1688.62 653.915 2965C653.915 4241.38 1688.62 5276.09 2965 5276.09Z" fill="url(#paint6_linear_506_79)"/>
<path opacity="0.7" fill-rule="evenodd" clip-rule="evenodd" d="M5930 2965C5930 4602.52 4602.52 5930 2965 5930C1327.48 5930 0 4602.52 0 2965C0 1327.48 1327.48 0 2965 0C4602.52 0 5930 1327.48 5930 2965ZM2965 5408.91C4314.73 5408.91 5408.91 4314.73 5408.91 2965C5408.91 1615.27 4314.73 521.094 2965 521.094C1615.27 521.094 521.094 1615.27 521.094 2965C521.094 4314.73 1615.27 5408.91 2965 5408.91Z" fill="url(#paint7_linear_506_79)"/>
<path opacity="0.7" fill-rule="evenodd" clip-rule="evenodd" d="M4781.5 2965C4781.5 3968.23 3968.23 4781.5 2965 4781.5C1961.77 4781.5 1148.5 3968.23 1148.5 2965C1148.5 1961.77 1961.77 1148.5 2965 1148.5C3968.23 1148.5 4781.5 1961.77 4781.5 2965ZM2965 4462.26C3791.91 4462.26 4462.26 3791.91 4462.26 2965C4462.26 2138.09 3791.91 1467.75 2965 1467.75C2138.09 1467.75 1467.75 2138.09 1467.75 2965C1467.75 3791.91 2138.09 4462.26 2965 4462.26Z" fill="#BCD611"/>
<path opacity="0.7" fill-rule="evenodd" clip-rule="evenodd" d="M5097.93 2965C5097.93 4142.98 4142.98 5097.93 2965 5097.93C1787.02 5097.93 832.075 4142.98 832.075 2965C832.075 1787.02 1787.02 832.076 2965 832.076C4142.98 832.076 5097.93 1787.02 5097.93 2965ZM2965 4723.07C3935.95 4723.07 4723.07 3935.96 4723.07 2965C4723.07 1994.05 3935.95 1206.93 2965 1206.93C1994.05 1206.93 1206.93 1994.05 1206.93 2965C1206.93 3935.96 1994.05 4723.07 2965 4723.07Z" fill="url(#paint8_linear_506_79)"/>
<path opacity="0.7" fill-rule="evenodd" clip-rule="evenodd" d="M4661.38 2965C4661.38 3901.88 3901.88 4661.38 2965 4661.38C2028.12 4661.38 1268.62 3901.88 1268.62 2965C1268.62 2028.12 2028.12 1268.62 2965 1268.62C3901.88 1268.62 4661.38 2028.12 4661.38 2965ZM2965 4363.24C3737.23 4363.24 4363.24 3737.23 4363.24 2965C4363.24 2192.77 3737.23 1566.76 2965 1566.76C2192.77 1566.76 1566.76 2192.77 1566.76 2965C1566.76 3737.23 2192.77 4363.24 2965 4363.24Z" fill="url(#paint9_linear_506_79)"/>
<path opacity="0.7" fill-rule="evenodd" clip-rule="evenodd" d="M5250.28 2965C5250.28 4227.12 4227.12 5250.28 2965 5250.28C1702.88 5250.28 679.723 4227.12 679.723 2965C679.723 1702.88 1702.88 679.724 2965 679.724C4227.12 679.724 5250.28 1702.88 5250.28 2965ZM2965 4848.64C4005.31 4848.64 4848.64 4005.31 4848.64 2965C4848.64 1924.69 4005.31 1081.36 2965 1081.36C1924.69 1081.36 1081.36 1924.69 1081.36 2965C1081.36 4005.31 1924.69 4848.64 2965 4848.64Z" fill="url(#paint10_linear_506_79)"/>
<path opacity="0.7" fill-rule="evenodd" clip-rule="evenodd" d="M5612.11 2965C5612.11 4426.96 4426.96 5612.11 2965 5612.11C1503.04 5612.11 317.888 4426.96 317.888 2965C317.888 1503.04 1503.04 317.888 2965 317.888C4426.96 317.888 5612.11 1503.04 5612.11 2965ZM2965 5146.89C4170.02 5146.89 5146.89 4170.02 5146.89 2965C5146.89 1759.98 4170.02 783.113 2965 783.113C1759.98 783.113 783.114 1759.98 783.114 2965C783.114 4170.02 1759.98 5146.89 2965 5146.89Z" fill="#58A71A"/>
<path opacity="0.7" fill-rule="evenodd" clip-rule="evenodd" d="M5490.52 2965C5490.52 4359.81 4359.81 5490.52 2965 5490.52C1570.19 5490.52 439.476 4359.81 439.476 2965C439.476 1570.19 1570.19 439.476 2965 439.476C4359.81 439.476 5490.52 1570.19 5490.52 2965ZM2965 5046.67C4114.67 5046.67 5046.67 4114.67 5046.67 2965C5046.67 1815.33 4114.67 883.332 2965 883.332C1815.33 883.332 883.332 1815.33 883.332 2965C883.332 4114.67 1815.33 5046.67 2965 5046.67Z" fill="url(#paint11_linear_506_79)"/>
</g>
<g style="mix-blend-mode:difference" opacity="0.1">
<path fill-rule="evenodd" clip-rule="evenodd" d="M2965 5611.94C4426.87 5611.94 5611.95 4426.87 5611.95 2965C5611.95 1503.13 4426.87 318.054 2965 318.054C1503.13 318.054 318.056 1503.13 318.056 2965C318.056 4426.87 1503.13 5611.94 2965 5611.94ZM2965 4330.32C3719.05 4330.32 4330.32 3719.05 4330.32 2965C4330.32 2210.95 3719.05 1599.68 2965 1599.68C2210.95 1599.68 1599.68 2210.95 1599.68 2965C1599.68 3719.05 2210.95 4330.32 2965 4330.32Z" fill="#EF7272"/>
<path opacity="0.7" fill-rule="evenodd" clip-rule="evenodd" d="M2965 5611.94C4426.87 5611.94 5611.95 4426.87 5611.95 2965C5611.95 1503.13 4426.87 318.054 2965 318.054C1503.13 318.054 318.056 1503.13 318.056 2965C318.056 4426.87 1503.13 5611.94 2965 5611.94ZM2965 4330.32C3719.05 4330.32 4330.32 3719.05 4330.32 2965C4330.32 2210.95 3719.05 1599.68 2965 1599.68C2210.95 1599.68 1599.68 2210.95 1599.68 2965C1599.68 3719.05 2210.95 4330.32 2965 4330.32Z" fill="#46FFA6"/>
<path opacity="0.7" fill-rule="evenodd" clip-rule="evenodd" d="M5468.09 2965C5468.09 4347.42 4347.42 5468.09 2965 5468.09C1582.58 5468.09 461.912 4347.42 461.912 2965C461.912 1582.58 1582.58 461.909 2965 461.909C4347.42 461.909 5468.09 1582.58 5468.09 2965ZM2965 5028.17C4104.46 5028.17 5028.18 4104.46 5028.18 2965C5028.18 1825.54 4104.46 901.823 2965 901.823C1825.54 901.823 901.825 1825.54 901.825 2965C901.825 4104.46 1825.54 5028.17 2965 5028.17Z" fill="url(#paint12_linear_506_79)"/>
<path opacity="0.7" fill-rule="evenodd" clip-rule="evenodd" d="M5611.95 2965C5611.95 4426.87 4426.87 5611.94 2965 5611.94C1503.13 5611.94 318.056 4426.87 318.056 2965C318.056 1503.13 1503.13 318.054 2965 318.054C4426.87 318.054 5611.95 1503.13 5611.95 2965ZM2965 5146.75C4169.95 5146.75 5146.75 4169.95 5146.75 2965C5146.75 1760.05 4169.95 783.25 2965 783.25C1760.05 783.25 783.252 1760.05 783.252 2965C783.252 4169.95 1760.05 5146.75 2965 5146.75Z" fill="url(#paint13_linear_506_79)"/>
<path opacity="0.7" fill-rule="evenodd" clip-rule="evenodd" d="M4586.65 2965C4586.65 3860.61 3860.61 4586.65 2965 4586.65C2069.39 4586.65 1343.35 3860.61 1343.35 2965C1343.35 2069.39 2069.39 1343.35 2965 1343.35C3860.61 1343.35 4586.65 2069.39 4586.65 2965ZM2965 4301.64C3703.21 4301.64 4301.65 3703.21 4301.65 2965C4301.65 2226.79 3703.21 1628.35 2965 1628.35C2226.79 1628.35 1628.36 2226.79 1628.36 2965C1628.36 3703.21 2226.79 4301.64 2965 4301.64Z" fill="#BCD611"/>
<path opacity="0.7" fill-rule="evenodd" clip-rule="evenodd" d="M4869.13 2965C4869.13 4016.62 4016.62 4869.13 2965 4869.13C1913.38 4869.13 1060.87 4016.62 1060.87 2965C1060.87 1913.38 1913.38 1060.87 2965 1060.87C4016.62 1060.87 4869.13 1913.38 4869.13 2965ZM2965 4534.48C3831.8 4534.48 4534.48 3831.8 4534.48 2965C4534.48 2098.2 3831.8 1395.52 2965 1395.52C2098.2 1395.52 1395.52 2098.2 1395.52 2965C1395.52 3831.8 2098.2 4534.48 2965 4534.48Z" fill="url(#paint14_linear_506_79)"/>
<path opacity="0.7" fill-rule="evenodd" clip-rule="evenodd" d="M4479.41 2965C4479.41 3801.38 3801.38 4479.4 2965 4479.4C2128.62 4479.4 1450.59 3801.38 1450.59 2965C1450.59 2128.61 2128.62 1450.59 2965 1450.59C3801.38 1450.59 4479.41 2128.61 4479.41 2965ZM2965 4213.25C3654.39 4213.25 4213.25 3654.39 4213.25 2965C4213.25 2275.6 3654.39 1716.74 2965 1716.74C2275.61 1716.74 1716.75 2275.6 1716.75 2965C1716.75 3654.39 2275.61 4213.25 2965 4213.25Z" fill="url(#paint15_linear_506_79)"/>
<path opacity="0.7" fill-rule="evenodd" clip-rule="evenodd" d="M5005.14 2965C5005.14 4091.73 4091.74 5005.13 2965 5005.13C1838.26 5005.13 924.865 4091.73 924.865 2965C924.865 1838.26 1838.26 924.862 2965 924.862C4091.74 924.862 5005.14 1838.26 5005.14 2965ZM2965 4646.58C3893.71 4646.58 4646.59 3893.71 4646.59 2965C4646.59 2036.28 3893.71 1283.41 2965 1283.41C2036.29 1283.41 1283.42 2036.28 1283.42 2965C1283.42 3893.71 2036.29 4646.58 2965 4646.58Z" fill="url(#paint16_linear_506_79)"/>
<path opacity="0.7" fill-rule="evenodd" clip-rule="evenodd" d="M5328.16 2965C5328.16 4270.13 4270.14 5328.16 2965 5328.16C1659.87 5328.16 601.844 4270.13 601.844 2965C601.844 1659.86 1659.87 601.842 2965 601.842C4270.14 601.842 5328.16 1659.86 5328.16 2965ZM2965 4912.84C4040.76 4912.84 4912.84 4040.76 4912.84 2965C4912.84 1889.24 4040.76 1017.16 2965 1017.16C1889.24 1017.16 1017.17 1889.24 1017.17 2965C1017.17 4040.76 1889.24 4912.84 2965 4912.84Z" fill="#58A71A"/>
<path opacity="0.7" fill-rule="evenodd" clip-rule="evenodd" d="M5219.61 2965C5219.61 4210.19 4210.19 5219.61 2965 5219.61C1719.81 5219.61 710.389 4210.19 710.389 2965C710.389 1719.81 1719.81 710.387 2965 710.387C4210.19 710.387 5219.61 1719.81 5219.61 2965ZM2965 4823.37C3991.35 4823.37 4823.37 3991.35 4823.37 2965C4823.37 1938.65 3991.35 1106.63 2965 1106.63C1938.65 1106.63 1106.63 1938.65 1106.63 2965C1106.63 3991.35 1938.65 4823.37 2965 4823.37Z" fill="url(#paint17_linear_506_79)"/>
</g>
<defs>
<linearGradient id="paint0_linear_506_79" x1="2965" y1="1589.8" x2="2965" y2="4340.21" gradientUnits="userSpaceOnUse">
<stop stop-color="#A1D711"/>
<stop offset="1" stop-color="#11D73D"/>
</linearGradient>
<linearGradient id="paint1_linear_506_79" x1="3514.89" y1="1448.49" x2="2323.14" y2="4586.89" gradientUnits="userSpaceOnUse">
<stop stop-color="#04B560"/>
<stop offset="1" stop-color="#D5DB26"/>
</linearGradient>
<linearGradient id="paint2_linear_506_79" x1="2965" y1="1918.87" x2="2965" y2="4011.13" gradientUnits="userSpaceOnUse">
<stop stop-color="#3E830F"/>
<stop offset="1" stop-color="#7C9535"/>
</linearGradient>
<linearGradient id="paint3_linear_506_79" x1="2965" y1="2132.98" x2="2965" y2="3797.02" gradientUnits="userSpaceOnUse">
<stop offset="0.233701" stop-color="#4F9C38"/>
<stop offset="1" stop-color="#82FA4A"/>
</linearGradient>
<linearGradient id="paint4_linear_506_79" x1="2965" y1="1844.14" x2="2965" y2="4085.85" gradientUnits="userSpaceOnUse">
<stop stop-color="#9CD21C"/>
<stop offset="1" stop-color="#00FF38"/>
</linearGradient>
<linearGradient id="paint5_linear_506_79" x1="2965" y1="1726.31" x2="2965" y2="4203.69" gradientUnits="userSpaceOnUse">
<stop stop-color="#62C40B"/>
<stop offset="1" stop-color="#0BC434"/>
</linearGradient>
<linearGradient id="paint6_linear_506_79" x1="2965" y1="161.142" x2="2965" y2="5768.86" gradientUnits="userSpaceOnUse">
<stop stop-color="#A1D711"/>
<stop offset="1" stop-color="#11D73D"/>
</linearGradient>
<linearGradient id="paint7_linear_506_79" x1="4086.15" y1="-126.96" x2="1656.34" y2="6271.81" gradientUnits="userSpaceOnUse">
<stop stop-color="#04B560"/>
<stop offset="1" stop-color="#D5DB26"/>
</linearGradient>
<linearGradient id="paint8_linear_506_79" x1="2965" y1="832.076" x2="2965" y2="5097.93" gradientUnits="userSpaceOnUse">
<stop stop-color="#3E830F"/>
<stop offset="1" stop-color="#7C9535"/>
</linearGradient>
<linearGradient id="paint9_linear_506_79" x1="2965" y1="1268.62" x2="2965" y2="4661.38" gradientUnits="userSpaceOnUse">
<stop offset="0.233701" stop-color="#4F9C38"/>
<stop offset="1" stop-color="#82FA4A"/>
</linearGradient>
<linearGradient id="paint10_linear_506_79" x1="2965" y1="679.724" x2="2965" y2="5250.28" gradientUnits="userSpaceOnUse">
<stop stop-color="#9CD21C"/>
<stop offset="1" stop-color="#00FF38"/>
</linearGradient>
<linearGradient id="paint11_linear_506_79" x1="2965" y1="439.476" x2="2965" y2="5490.52" gradientUnits="userSpaceOnUse">
<stop stop-color="#62C40B"/>
<stop offset="1" stop-color="#0BC434"/>
</linearGradient>
<linearGradient id="paint12_linear_506_79" x1="2965" y1="461.909" x2="2965" y2="5468.09" gradientUnits="userSpaceOnUse">
<stop stop-color="#A1D711"/>
<stop offset="1" stop-color="#11D73D"/>
</linearGradient>
<linearGradient id="paint13_linear_506_79" x1="3965.89" y1="204.713" x2="1796.72" y2="5917.09" gradientUnits="userSpaceOnUse">
<stop stop-color="#04B560"/>
<stop offset="1" stop-color="#D5DB26"/>
</linearGradient>
<linearGradient id="paint14_linear_506_79" x1="2965" y1="1060.87" x2="2965" y2="4869.13" gradientUnits="userSpaceOnUse">
<stop stop-color="#3E830F"/>
<stop offset="1" stop-color="#7C9535"/>
</linearGradient>
<linearGradient id="paint15_linear_506_79" x1="2965" y1="1450.59" x2="2965" y2="4479.4" gradientUnits="userSpaceOnUse">
<stop offset="0.233701" stop-color="#4F9C38"/>
<stop offset="1" stop-color="#82FA4A"/>
</linearGradient>
<linearGradient id="paint16_linear_506_79" x1="2965" y1="924.862" x2="2965" y2="5005.13" gradientUnits="userSpaceOnUse">
<stop stop-color="#9CD21C"/>
<stop offset="1" stop-color="#00FF38"/>
</linearGradient>
<linearGradient id="paint17_linear_506_79" x1="2965" y1="710.387" x2="2965" y2="5219.61" gradientUnits="userSpaceOnUse">
<stop stop-color="#62C40B"/>
<stop offset="1" stop-color="#0BC434"/>
</linearGradient>
</defs>
</svg>
