<svg width="89" height="994" viewBox="0 0 89 994" fill="none" xmlns="http://www.w3.org/2000/svg">
<path d="M87.5336 223.5C74.4543 125.593 44.4364 1.78581 42.5 1H1C74.5065 274.735 68.8105 685.347 1.5 993H47.5C47.5 993 85.034 777 87.034 718.5C87.6341 700.947 89.1623 689.05 82.534 672.5L64.5338 627C60.7944 618.167 59.0914 612.731 59.0339 599.5C60.9846 461.497 61.331 384.246 49.5338 248.5C48.8828 238.935 55.7883 238.041 61.0333 238H71.5334C82.0173 237.749 88.9083 234.663 87.5336 223.5Z" fill="url(#paint0_radial_216_168)" stroke="black" stroke-opacity="0.5"/>
<defs>
<radialGradient id="paint0_radial_216_168" cx="0" cy="0" r="1" gradientUnits="userSpaceOnUse" gradientTransform="translate(-1802 580.5) rotate(91.4838) scale(2490.84 1932.87)">
<stop offset="0.946467" stop-color="#C1C1C1"/>
<stop offset="0.973669" stop-color="#DBDBDB"/>
<stop offset="1" stop-color="#8B8B8B"/>
</radialGradient>
</defs>
</svg>
