<svg width="149" height="1022" viewBox="0 0 149 1022" fill="none" xmlns="http://www.w3.org/2000/svg">
<g filter="url(#filter0_d_202_131)">
<path d="M107.534 237.5L62.5 15H75C142.509 239.669 144.63 668.597 80.5 1007H67.5C65.1156 1008.67 103.755 791.895 107.034 732.5C108.002 714.964 109.162 703.05 102.534 686.5L84.5342 641C80.7947 632.167 79.0917 626.731 79.0342 613.5C80.9849 475.497 81.3312 398.246 69.534 262.5C68.883 252.934 75.7887 252.041 81.0336 252H91.5337C102.018 251.749 108.908 248.662 107.534 237.5Z" fill="url(#paint0_linear_202_131)" fill-opacity="0.01" shape-rendering="crispEdges"/>
</g>
<g filter="url(#filter1_d_202_131)">
<path d="M107.534 237.5L62.5 15H75C142.509 239.669 144.63 668.597 80.5 1007H67.5C65.1156 1008.67 103.755 791.895 107.034 732.5C108.002 714.964 109.162 703.05 102.534 686.5L84.5342 641C80.7947 632.167 79.0917 626.731 79.0342 613.5C80.9849 475.497 81.3312 398.246 69.534 262.5C68.883 252.934 75.7887 252.041 81.0336 252H91.5337C102.018 251.749 108.908 248.662 107.534 237.5Z" fill="url(#paint1_linear_202_131)" fill-opacity="0.01" shape-rendering="crispEdges"/>
</g>
<path d="M107.534 237.5L62.5 15H75C142.509 239.669 144.63 668.597 80.5 1007H67.5C65.1156 1008.67 103.755 791.895 107.034 732.5C108.002 714.964 109.162 703.05 102.534 686.5L84.5342 641C80.7947 632.167 79.0917 626.731 79.0342 613.5C80.9849 475.497 81.3312 398.246 69.534 262.5C68.883 252.934 75.7887 252.041 81.0336 252H91.5337C102.018 251.749 108.908 248.662 107.534 237.5Z" fill="url(#paint2_radial_202_131)"/>
<g filter="url(#filter2_f_202_131)">
<path d="M108.825 238.822C96.9176 150.51 84.1966 101.112 66.51 15H65C82.6866 101.112 94.9043 148.516 106.811 236.828C108.195 247.958 101.258 251.034 90.704 251.285H80.1338C74.8538 251.326 67.902 252.217 68.5575 261.753C80.4335 397.089 80.0848 474.108 78.121 611.694C78.1789 624.885 79.8933 630.305 83.6577 639.111L101.778 684.473C108.451 700.974 106.912 712.835 106.308 730.334C104.295 788.658 65.5033 1005.5 65.5033 1005.5L68.5234 1006C68.5234 1006 106.308 790.652 108.322 732.328C108.926 714.829 110.464 702.968 103.792 686.467L85.6711 641.105C81.9066 632.299 80.1923 626.879 80.1344 613.688C82.0982 476.102 82.4468 399.083 70.5708 263.747C69.9154 254.211 76.8671 253.32 82.1472 253.278H92.7174C103.271 253.028 110.208 249.951 108.825 238.822Z" fill="black"/>
</g>
<g filter="url(#filter3_f_202_131)">
<path d="M19.4976 1007H25.4692C94.5026 599.719 101.761 380.428 25.4692 15H19C92.1582 288.735 86.4891 699.347 19.4976 1007Z" fill="black"/>
</g>
<g filter="url(#filter4_f_202_131)">
<path d="M15.4976 1007H21.4692C90.5026 599.719 97.7607 380.428 21.4692 15H15C88.1582 288.735 82.4891 699.347 15.4976 1007Z" fill="black"/>
</g>
<path d="M107.534 237.5C95.7057 148.92 83.5691 101.373 66 15H21C94.5065 288.735 88.8105 699.347 21.5 1007H67.5C67.5 1007 105.034 791 107.034 732.5C107.634 714.947 109.162 703.05 102.534 686.5L84.5338 641C80.7944 632.167 79.0914 626.731 79.0339 613.5C80.9846 475.497 81.331 398.246 69.5338 262.5C68.8828 252.935 75.7883 252.041 81.0333 252H91.5334C102.017 251.749 108.908 248.663 107.534 237.5Z" fill="#EAEAEA"/>
<path d="M107.534 237.5C95.7057 148.92 83.5691 101.373 66 15H21C94.5065 288.735 88.8105 699.347 21.5 1007H67.5C67.5 1007 105.034 791 107.034 732.5C107.634 714.947 109.162 703.05 102.534 686.5L84.5338 641C80.7944 632.167 79.0914 626.731 79.0339 613.5C80.9846 475.497 81.331 398.246 69.5338 262.5C68.8828 252.935 75.7883 252.041 81.0333 252H91.5334C102.017 251.749 108.908 248.663 107.534 237.5Z" fill="url(#paint3_radial_202_131)"/>
<mask id="mask0_202_131" style="mask-type:alpha" maskUnits="userSpaceOnUse" x="69" y="18" width="61" height="599">
<path d="M110.534 240.5C98.7057 151.92 86.5691 104.373 69 18H130V616.5H82.0339C83.9846 478.497 84.331 401.246 72.5338 265.5C71.8828 255.935 78.7883 255.041 84.0333 255H94.5334C105.017 254.749 111.908 251.663 110.534 240.5Z" fill="#EAEAEA"/>
</mask>
<g mask="url(#mask0_202_131)">
<path d="M113.5 247C118 284 93.9574 312 68 312C42.0426 312 21 282.899 21 247C21 211.101 42.0426 182 68 182C93.9574 182 109 210 113.5 247Z" fill="url(#paint4_radial_202_131)"/>
</g>
<mask id="mask1_202_131" style="mask-type:alpha" maskUnits="userSpaceOnUse" x="69" y="253" width="55" height="753">
<path d="M78.5 604.5C80.4508 466.498 80.7971 389.246 68.9999 253.5L123.5 261V1005.5H69.0002C69.0002 1005.5 105 793.5 107 735C107.6 717.448 110.663 701.551 104.034 685L86.0341 639.5C82.2946 630.668 78.5575 617.732 78.5 604.5Z" fill="#EAEAEA"/>
</mask>
<g mask="url(#mask1_202_131)">
<path d="M79 601.5C115.003 606.041 110.296 667.233 107 748C90.7884 706.815 79.4157 679.356 79 601.5Z" fill="url(#paint5_radial_202_131)" fill-opacity="0.5"/>
</g>
<path d="M89 278.115L89 275.955L102.631 275.955C102.713 276.256 102.795 276.598 102.877 276.98C102.968 277.363 103.05 277.764 103.123 278.184C103.196 278.612 103.255 279.045 103.301 279.482C103.346 279.92 103.369 280.344 103.369 280.754C103.369 281.483 103.305 282.18 103.178 282.846C103.059 283.511 102.886 284.053 102.658 284.473C102.74 284.737 102.822 285.033 102.904 285.361C102.986 285.699 103.059 286.054 103.123 286.428C103.196 286.811 103.255 287.198 103.301 287.59C103.346 287.982 103.369 288.36 103.369 288.725C103.369 289.673 103.255 290.484 103.027 291.158C102.809 291.833 102.499 292.384 102.098 292.812C101.706 293.25 101.245 293.569 100.717 293.77C100.188 293.97 99.6139 294.07 98.9941 294.07L89 294.07L89 291.924L98.9941 291.924C99.8236 291.924 100.425 291.655 100.799 291.117C101.182 290.579 101.373 289.782 101.373 288.725C101.373 288.506 101.364 288.273 101.346 288.027C101.327 287.781 101.3 287.54 101.264 287.303C101.227 287.075 101.186 286.856 101.141 286.646C101.095 286.437 101.045 286.255 100.99 286.1L89 286.1L89 283.939L100.676 283.939C100.785 283.794 100.881 283.602 100.963 283.365C101.045 283.137 101.118 282.882 101.182 282.6C101.245 282.317 101.291 282.016 101.318 281.697C101.355 281.387 101.373 281.073 101.373 280.754C101.373 280.526 101.364 280.289 101.346 280.043C101.327 279.797 101.3 279.555 101.264 279.318C101.227 279.09 101.186 278.872 101.141 278.662C101.095 278.452 101.045 278.27 100.99 278.115L89 278.115ZM93.1973 299.238C92.8327 299.238 92.4954 299.298 92.1855 299.416C91.8848 299.544 91.625 299.74 91.4062 300.004C91.1875 300.277 91.0143 300.628 90.8867 301.057C90.7682 301.494 90.709 302.027 90.709 302.656C90.709 302.911 90.7227 303.185 90.75 303.477C90.7773 303.768 90.8138 304.055 90.8594 304.338C90.9049 304.62 90.9505 304.88 90.9961 305.117C91.0508 305.363 91.1055 305.568 91.1602 305.732L95.6309 305.732L95.6309 301.863C95.6309 301.408 95.5716 301.016 95.4531 300.687C95.3346 300.359 95.1751 300.086 94.9746 299.867C94.7741 299.658 94.5371 299.498 94.2637 299.389C93.9993 299.288 93.7214 299.238 93.4297 299.238L93.1973 299.238ZM101.428 302.848C101.428 302.191 101.273 301.59 100.963 301.043C100.653 300.496 100.257 300.063 99.7734 299.744L100.922 297.98C101.66 298.4 102.253 299.01 102.699 299.812C103.146 300.624 103.369 301.626 103.369 302.82C103.369 303.695 103.273 304.452 103.082 305.09C102.891 305.728 102.59 306.252 102.18 306.662C101.779 307.081 101.264 307.391 100.635 307.592C100.006 307.792 99.2539 307.893 98.3789 307.893L89.5059 307.893C89.2962 307.118 89.1139 306.298 88.959 305.432C88.804 304.566 88.7266 303.641 88.7266 302.656C88.7266 301.635 88.8405 300.77 89.0684 300.059C89.2962 299.348 89.6061 298.769 89.998 298.322C90.39 297.885 90.8503 297.566 91.3789 297.365C91.9076 297.174 92.4772 297.078 93.0879 297.078L93.5117 297.078C94.1771 297.078 94.7604 297.197 95.2617 297.434C95.7721 297.671 96.196 298.008 96.5332 298.445C96.8796 298.883 97.1393 299.411 97.3125 300.031C97.4857 300.651 97.5723 301.339 97.5723 302.096L97.5723 305.732L98.1328 305.732C98.6979 305.732 99.1855 305.682 99.5957 305.582C100.015 305.491 100.357 305.336 100.621 305.117C100.895 304.908 101.095 304.63 101.223 304.283C101.359 303.937 101.428 303.513 101.428 303.012L101.428 302.848ZM101.373 316.178C101.373 315.758 101.337 315.339 101.264 314.92C101.191 314.501 101.1 314.136 100.99 313.826L89 313.826L89 311.666L102.631 311.666C102.731 311.958 102.822 312.286 102.904 312.65C102.995 313.024 103.073 313.411 103.137 313.812C103.21 314.214 103.264 314.615 103.301 315.016C103.346 315.426 103.369 315.813 103.369 316.178C103.369 316.351 103.36 316.547 103.342 316.766C103.333 316.984 103.31 317.208 103.273 317.436C103.246 317.663 103.21 317.887 103.164 318.105C103.118 318.333 103.064 318.538 103 318.721L100.758 318.721C100.84 318.557 100.917 318.365 100.99 318.146C101.063 317.937 101.127 317.718 101.182 317.49C101.236 317.262 101.282 317.035 101.318 316.807C101.355 316.579 101.373 316.369 101.373 316.178ZM103 329.139L103 331.654L96.9023 325.666L89 331.764L89 329.303L96.6152 323.396L89 323.396L89 321.236L108.318 321.236L108.318 323.396L97.0391 323.396L103 329.139ZM95.7266 344.109L95.7266 335.168L94.6875 335.168C93.9219 335.168 93.2793 335.25 92.7598 335.414C92.2493 335.578 91.8346 335.806 91.5156 336.098C91.2057 336.398 90.9824 336.758 90.8457 337.178C90.7181 337.597 90.6543 338.066 90.6543 338.586C90.6543 339.105 90.7135 339.611 90.832 340.104C90.9596 340.605 91.1146 341.074 91.2969 341.512C91.4883 341.949 91.6979 342.346 91.9258 342.701C92.1536 343.066 92.3724 343.367 92.582 343.604L90.4219 343.604C90.1758 343.367 89.9479 343.07 89.7383 342.715C89.5378 342.359 89.36 341.963 89.2051 341.525C89.0592 341.097 88.9453 340.632 88.8633 340.131C88.7721 339.639 88.7266 339.133 88.7266 338.613C88.7266 337.738 88.8223 336.954 89.0137 336.262C89.2142 335.569 89.5378 334.981 89.9844 334.498C90.4401 334.024 91.028 333.66 91.748 333.404C92.4772 333.149 93.3704 333.021 94.4277 333.021L97.5176 333.021C98.4655 333.021 99.2995 333.145 100.02 333.391C100.749 333.646 101.359 334.006 101.852 334.471C102.353 334.936 102.731 335.501 102.986 336.166C103.242 336.84 103.369 337.592 103.369 338.422L103.369 338.641C103.369 339.434 103.255 340.163 103.027 340.828C102.809 341.503 102.467 342.081 102.002 342.564C101.537 343.048 100.945 343.426 100.225 343.699C99.5137 343.973 98.666 344.109 97.6816 344.109L95.7266 344.109ZM101.428 338.531C101.428 338.039 101.355 337.588 101.209 337.178C101.072 336.777 100.849 336.426 100.539 336.125C100.238 335.833 99.8464 335.605 99.3633 335.441C98.8802 335.277 98.3014 335.186 97.627 335.168L97.627 341.949C98.3288 341.949 98.9212 341.858 99.4043 341.676C99.8874 341.503 100.279 341.266 100.58 340.965C100.881 340.664 101.095 340.313 101.223 339.912C101.359 339.511 101.428 339.087 101.428 338.641L101.428 338.531ZM103 346.283L103 347.801L106.473 347.801L106.746 349.961L103 349.961L103 353.42L101.1 353.42L101.1 349.961L93.0332 349.961C92.6504 349.961 92.3131 349.988 92.0215 350.043C91.7298 350.107 91.4792 350.212 91.2695 350.357C91.069 350.512 90.9141 350.713 90.8047 350.959C90.7044 351.205 90.6543 351.515 90.6543 351.889C90.6543 352.253 90.6771 352.59 90.7227 352.9C90.7773 353.21 90.8548 353.525 90.9551 353.844L89.0273 353.844C88.9271 353.525 88.8542 353.183 88.8086 352.818C88.7539 352.463 88.7266 352.03 88.7266 351.52C88.7266 350.754 88.8405 350.13 89.0684 349.646C89.2962 349.163 89.6061 348.785 89.998 348.512C90.39 348.238 90.8411 348.051 91.3516 347.951C91.862 347.851 92.3952 347.801 92.9512 347.801L101.1 347.801L101.1 346.283L103 346.283ZM88.7266 361.732C88.7266 361.186 88.7539 360.648 88.8086 360.119C88.8542 359.6 88.918 359.071 89 358.533L83.3945 358.533L83.3945 356.373L102.521 356.373C102.658 356.811 102.777 357.285 102.877 357.795C102.986 358.305 103.077 358.816 103.15 359.326C103.223 359.846 103.278 360.342 103.314 360.816C103.351 361.299 103.369 361.732 103.369 362.115C103.369 362.899 103.278 363.605 103.096 364.234C102.913 364.863 102.631 365.396 102.248 365.834C101.865 366.281 101.378 366.622 100.785 366.859C100.193 367.096 99.4863 367.215 98.666 367.215L93.457 367.215C92.8372 367.215 92.2402 367.115 91.666 366.914C91.1009 366.714 90.5996 366.39 90.1621 365.943C89.7246 365.506 89.3737 364.941 89.1094 364.248C88.8542 363.555 88.7266 362.717 88.7266 361.732ZM101.428 362.115C101.428 361.796 101.414 361.468 101.387 361.131C101.359 360.794 101.323 360.465 101.277 360.146C101.232 359.837 101.177 359.54 101.113 359.258C101.059 358.984 101.004 358.743 100.949 358.533L91.0508 358.533C90.9961 358.752 90.9414 358.993 90.8867 359.258C90.8411 359.531 90.8001 359.809 90.7637 360.092C90.7272 360.383 90.6999 360.671 90.6816 360.953C90.6634 361.236 90.6543 361.495 90.6543 361.732C90.6543 362.325 90.7227 362.831 90.8594 363.25C90.9961 363.669 91.1875 364.011 91.4336 364.275C91.6797 364.54 91.9759 364.736 92.3223 364.863C92.6686 364.991 93.0469 365.055 93.457 365.055L98.4062 365.055C100.421 365.055 101.428 364.075 101.428 362.115ZM108.318 370.646L108.318 372.807L92.7461 372.807C92.0078 372.807 91.4746 372.925 91.1465 373.162C90.8184 373.399 90.6543 373.782 90.6543 374.311C90.6543 374.62 90.668 374.935 90.6953 375.254C90.7318 375.573 90.7728 375.887 90.8184 376.197L88.918 376.197C88.8633 375.878 88.8177 375.527 88.7812 375.145C88.7448 374.771 88.7266 374.347 88.7266 373.873C88.7266 373.253 88.8131 372.734 88.9863 372.314C89.1595 371.904 89.4193 371.576 89.7656 371.33C90.112 371.084 90.5449 370.906 91.0644 370.797C91.584 370.697 92.1855 370.646 92.8691 370.646L108.318 370.646ZM93.1973 379.82C92.8327 379.82 92.4954 379.88 92.1855 379.998C91.8848 380.126 91.625 380.322 91.4062 380.586C91.1875 380.859 91.0143 381.21 90.8867 381.639C90.7682 382.076 90.709 382.609 90.709 383.238C90.709 383.493 90.7227 383.767 90.75 384.059C90.7773 384.35 90.8138 384.637 90.8594 384.92C90.9049 385.202 90.9505 385.462 90.9961 385.699C91.0508 385.945 91.1055 386.15 91.1602 386.314L95.6309 386.314L95.6309 382.445C95.6309 381.99 95.5716 381.598 95.4531 381.27C95.3346 380.941 95.1751 380.668 94.9746 380.449C94.7741 380.24 94.5371 380.08 94.2637 379.971C93.9993 379.87 93.7213 379.82 93.4297 379.82L93.1973 379.82ZM101.428 383.43C101.428 382.773 101.273 382.172 100.963 381.625C100.653 381.078 100.257 380.645 99.7734 380.326L100.922 378.562C101.66 378.982 102.253 379.592 102.699 380.395C103.146 381.206 103.369 382.208 103.369 383.402C103.369 384.277 103.273 385.034 103.082 385.672C102.891 386.31 102.59 386.834 102.18 387.244C101.779 387.663 101.264 387.973 100.635 388.174C100.006 388.374 99.2539 388.475 98.3789 388.475L89.5059 388.475C89.2962 387.7 89.1139 386.88 88.959 386.014C88.804 385.148 88.7266 384.223 88.7266 383.238C88.7266 382.217 88.8405 381.352 89.0684 380.641C89.2962 379.93 89.6061 379.351 89.998 378.904C90.39 378.467 90.8503 378.148 91.3789 377.947C91.9075 377.756 92.4772 377.66 93.0879 377.66L93.5117 377.66C94.1771 377.66 94.7604 377.779 95.2617 378.016C95.7721 378.253 96.196 378.59 96.5332 379.027C96.8796 379.465 97.1393 379.993 97.3125 380.613C97.4857 381.233 97.5723 381.921 97.5723 382.678L97.5723 386.314L98.1328 386.314C98.6979 386.314 99.1855 386.264 99.5957 386.164C100.015 386.073 100.357 385.918 100.621 385.699C100.895 385.49 101.095 385.212 101.223 384.865C101.359 384.519 101.428 384.095 101.428 383.594L101.428 383.43ZM99.6914 400.15C99.9284 400.014 100.152 399.859 100.361 399.686C100.571 399.512 100.753 399.312 100.908 399.084C101.063 398.865 101.186 398.619 101.277 398.346C101.378 398.072 101.428 397.776 101.428 397.457L101.428 397.184C101.428 396.673 101.359 396.222 101.223 395.83C101.086 395.438 100.863 395.11 100.553 394.846C100.243 394.581 99.8372 394.381 99.3359 394.244C98.8346 394.107 98.2194 394.039 97.4902 394.039L94.6875 394.039C93.9766 394.039 93.3659 394.112 92.8555 394.258C92.345 394.413 91.9258 394.627 91.5977 394.9C91.2695 395.183 91.028 395.525 90.873 395.926C90.7272 396.327 90.6543 396.773 90.6543 397.266C90.6543 397.74 90.7181 398.204 90.8457 398.66C90.9824 399.116 91.151 399.549 91.3516 399.959C91.5612 400.369 91.7891 400.747 92.0352 401.094C92.2904 401.44 92.5365 401.741 92.7734 401.996L90.5449 401.996C90.2988 401.741 90.0664 401.449 89.8477 401.121C89.6289 400.793 89.4329 400.428 89.2598 400.027C89.0957 399.635 88.9681 399.207 88.8769 398.742C88.7767 398.277 88.7266 397.785 88.7266 397.266C88.7266 396.409 88.8268 395.648 89.0273 394.982C89.237 394.317 89.5697 393.757 90.0254 393.301C90.4811 392.845 91.069 392.494 91.7891 392.248C92.5091 392.011 93.3887 391.893 94.4277 391.893L97.709 391.893C98.7116 391.893 99.5684 392.011 100.279 392.248C100.999 392.494 101.587 392.845 102.043 393.301C102.499 393.757 102.831 394.317 103.041 394.982C103.26 395.648 103.369 396.409 103.369 397.266L103.369 397.348C103.369 397.931 103.31 398.46 103.191 398.934C103.073 399.417 102.904 399.85 102.686 400.232C102.467 400.615 102.202 400.952 101.893 401.244C101.592 401.536 101.259 401.786 100.895 401.996L99.6914 400.15ZM95.7266 415.805L95.7266 406.863L94.6875 406.863C93.9219 406.863 93.2793 406.945 92.7598 407.109C92.2493 407.273 91.8346 407.501 91.5156 407.793C91.2057 408.094 90.9824 408.454 90.8457 408.873C90.7181 409.292 90.6543 409.762 90.6543 410.281C90.6543 410.801 90.7135 411.307 90.832 411.799C90.9596 412.3 91.1146 412.77 91.2969 413.207C91.4883 413.645 91.6979 414.041 91.9258 414.396C92.1536 414.761 92.3724 415.062 92.582 415.299L90.4219 415.299C90.1758 415.062 89.9479 414.766 89.7383 414.41C89.5378 414.055 89.36 413.658 89.2051 413.221C89.0592 412.792 88.9453 412.327 88.8633 411.826C88.7721 411.334 88.7266 410.828 88.7266 410.309C88.7266 409.434 88.8223 408.65 89.0137 407.957C89.2142 407.264 89.5378 406.676 89.9844 406.193C90.4401 405.719 91.028 405.355 91.748 405.1C92.4772 404.844 93.3704 404.717 94.4277 404.717L97.5176 404.717C98.4655 404.717 99.2995 404.84 100.02 405.086C100.749 405.341 101.359 405.701 101.852 406.166C102.353 406.631 102.731 407.196 102.986 407.861C103.242 408.536 103.369 409.288 103.369 410.117L103.369 410.336C103.369 411.129 103.255 411.858 103.027 412.523C102.809 413.198 102.467 413.777 102.002 414.26C101.537 414.743 100.945 415.121 100.225 415.395C99.5137 415.668 98.666 415.805 97.6816 415.805L95.7266 415.805ZM101.428 410.227C101.428 409.734 101.355 409.283 101.209 408.873C101.072 408.472 100.849 408.121 100.539 407.82C100.238 407.529 99.8463 407.301 99.3633 407.137C98.8802 406.973 98.3014 406.882 97.6269 406.863L97.6269 413.645C98.3288 413.645 98.9212 413.553 99.4043 413.371C99.8874 413.198 100.279 412.961 100.58 412.66C100.881 412.359 101.095 412.008 101.223 411.607C101.359 411.206 101.428 410.783 101.428 410.336L101.428 410.227Z" fill="black"/>
<defs>
<filter id="filter0_d_202_131" x="55.5" y="1" width="92.6562" height="1020.01" filterUnits="userSpaceOnUse" color-interpolation-filters="sRGB">
<feFlood flood-opacity="0" result="BackgroundImageFix"/>
<feColorMatrix in="SourceAlpha" type="matrix" values="0 0 0 0 0 0 0 0 0 0 0 0 0 0 0 0 0 0 127 0" result="hardAlpha"/>
<feOffset dx="7"/>
<feGaussianBlur stdDeviation="7"/>
<feComposite in2="hardAlpha" operator="out"/>
<feColorMatrix type="matrix" values="0 0 0 0 0 0 0 0 0 0 0 0 0 0 0 0 0 0 0.4 0"/>
<feBlend mode="normal" in2="BackgroundImageFix" result="effect1_dropShadow_202_131"/>
<feBlend mode="normal" in="SourceGraphic" in2="effect1_dropShadow_202_131" result="shape"/>
</filter>
<filter id="filter1_d_202_131" x="58.5" y="8" width="78.6562" height="1006.01" filterUnits="userSpaceOnUse" color-interpolation-filters="sRGB">
<feFlood flood-opacity="0" result="BackgroundImageFix"/>
<feColorMatrix in="SourceAlpha" type="matrix" values="0 0 0 0 0 0 0 0 0 0 0 0 0 0 0 0 0 0 127 0" result="hardAlpha"/>
<feOffset dx="3"/>
<feGaussianBlur stdDeviation="3.5"/>
<feComposite in2="hardAlpha" operator="out"/>
<feColorMatrix type="matrix" values="0 0 0 0 0 0 0 0 0 0 0 0 0 0 0 0 0 0 0.85 0"/>
<feBlend mode="normal" in2="BackgroundImageFix" result="effect1_dropShadow_202_131"/>
<feBlend mode="normal" in="SourceGraphic" in2="effect1_dropShadow_202_131" result="shape"/>
</filter>
<filter id="filter2_f_202_131" x="62" y="12" width="50" height="997" filterUnits="userSpaceOnUse" color-interpolation-filters="sRGB">
<feFlood flood-opacity="0" result="BackgroundImageFix"/>
<feBlend mode="normal" in="SourceGraphic" in2="BackgroundImageFix" result="shape"/>
<feGaussianBlur stdDeviation="1.5" result="effect1_foregroundBlur_202_131"/>
</filter>
<filter id="filter3_f_202_131" x="14" y="10" width="71" height="1002" filterUnits="userSpaceOnUse" color-interpolation-filters="sRGB">
<feFlood flood-opacity="0" result="BackgroundImageFix"/>
<feBlend mode="normal" in="SourceGraphic" in2="BackgroundImageFix" result="shape"/>
<feGaussianBlur stdDeviation="2.5" result="effect1_foregroundBlur_202_131"/>
</filter>
<filter id="filter4_f_202_131" x="0" y="0" width="91" height="1022" filterUnits="userSpaceOnUse" color-interpolation-filters="sRGB">
<feFlood flood-opacity="0" result="BackgroundImageFix"/>
<feBlend mode="normal" in="SourceGraphic" in2="BackgroundImageFix" result="shape"/>
<feGaussianBlur stdDeviation="7.5" result="effect1_foregroundBlur_202_131"/>
</filter>
<linearGradient id="paint0_linear_202_131" x1="316.5" y1="942.5" x2="58" y2="961" gradientUnits="userSpaceOnUse">
<stop stop-color="#BF582D"/>
<stop offset="0.422362" stop-color="#FF9B3F"/>
<stop offset="1" stop-color="#CD701B"/>
</linearGradient>
<linearGradient id="paint1_linear_202_131" x1="316.5" y1="942.5" x2="58" y2="961" gradientUnits="userSpaceOnUse">
<stop stop-color="#BF582D"/>
<stop offset="0.422362" stop-color="#FF9B3F"/>
<stop offset="1" stop-color="#CD701B"/>
</linearGradient>
<radialGradient id="paint2_radial_202_131" cx="0" cy="0" r="1" gradientUnits="userSpaceOnUse" gradientTransform="translate(143 14.9999) rotate(99.3311) scale(1005.3 262.926)">
<stop offset="0.174693" stop-color="#BF582D"/>
<stop offset="0.359221" stop-color="#FF9B3F"/>
<stop offset="0.694086" stop-color="#BF582D"/>
</radialGradient>
<radialGradient id="paint3_radial_202_131" cx="0" cy="0" r="1" gradientUnits="userSpaceOnUse" gradientTransform="translate(-752 511) rotate(90.2653) scale(1404.02 844.307)">
<stop offset="0.976605" stop-color="#929292"/>
<stop offset="1" stop-color="#EAEAEA" stop-opacity="0"/>
<stop offset="1" stop-color="#EDB6B6" stop-opacity="0.223939"/>
</radialGradient>
<radialGradient id="paint4_radial_202_131" cx="0" cy="0" r="1" gradientUnits="userSpaceOnUse" gradientTransform="translate(68 251.5) rotate(58.7652) scale(90.638 64.7963)">
<stop stop-color="white" stop-opacity="0.6"/>
<stop offset="1" stop-color="white" stop-opacity="0"/>
</radialGradient>
<radialGradient id="paint5_radial_202_131" cx="0" cy="0" r="1" gradientUnits="userSpaceOnUse" gradientTransform="translate(80.5 657.001) rotate(135.556) scale(72.8354 133.14)">
<stop stop-color="white"/>
<stop offset="1" stop-color="white" stop-opacity="0"/>
</radialGradient>
</defs>
</svg>
