<svg width="71" height="826" viewBox="0 0 71 826" fill="none" xmlns="http://www.w3.org/2000/svg">
<path d="M58.7598 773.5C1.20051 469.777 8.38225 301.004 56.7598 1H42.2587C-0.0385895 290.775 -26.5907 452.442 42.2587 773.5H58.7598Z" fill="#B0B0B0"/>
<path d="M58.7598 773.5C1.20051 469.777 8.38225 301.004 56.7598 1H42.2587C-0.0385895 290.775 -26.5907 452.442 42.2587 773.5H58.7598Z" fill="url(#paint0_linear_824_19)" fill-opacity="0.5"/>
<path d="M58.7598 773.5C1.20051 469.777 8.38225 301.004 56.7598 1H42.2587C-0.0385895 290.775 -26.5907 452.442 42.2587 773.5H58.7598Z" fill="url(#paint1_linear_824_19)" fill-opacity="0.5"/>
<path d="M33.4854 76.5C38.8607 44.5 46.9854 1 46.9854 1L38.765 1.5C-24.0133 372 4.48321 724 57.9824 824.5L63.4824 823.5C63.4824 823.5 25.5838 686.022 26.4854 628.5C26.8354 606.173 25.7693 595.311 31.4854 573.5C36.0717 556 52.3605 529.139 51.9852 504.5C49.5941 347.5 55.7366 190 69.4852 102C71.1357 91.4356 55.4854 96 42.4854 93C35.6731 91.4279 32.0979 84.7605 33.4854 76.5Z" fill="url(#paint2_linear_824_19)" stroke="black" stroke-opacity="0.4"/>
<path d="M42.6363 2C42.5955 2.20651 42.5496 2.43854 42.499 2.69514C42.2572 3.92078 41.9069 5.70708 41.4724 7.95051C40.6036 12.4373 39.3983 18.7529 38.0525 26.0691C35.3613 40.6985 32.1059 59.3398 29.8549 75.3609C28.6648 83.8314 30.3463 91.5135 37.8018 96.3395C39.6385 97.5284 42.3904 97.9521 45.2237 98.1636C46.6689 98.2715 48.1945 98.3265 49.7086 98.38L49.8021 98.3833C51.292 98.4359 52.7704 98.4882 54.1882 98.5877C57.1229 98.7937 59.6195 99.1952 61.2841 100.098C62.0927 100.536 62.6576 101.069 62.9978 101.715C63.3367 102.359 63.5014 103.209 63.3497 104.37C51.8413 192.435 44.341 346.986 46.3414 504.013C46.4957 516.126 42.5195 528.472 37.9668 540.062C36.7081 543.266 35.432 546.349 34.1879 549.354C33.1607 551.836 32.1554 554.265 31.1997 556.665C29.117 561.897 27.3419 566.827 26.3645 571.286C22.1793 590.378 22.0776 602.303 21.9285 619.78C21.9063 622.379 21.8831 625.101 21.8453 627.987C21.4663 656.89 31.1246 705.883 40.84 747.548C45.7029 768.403 50.589 787.458 54.2594 801.298C56.0946 808.219 57.626 813.837 58.6988 817.725C59.2352 819.669 59.6569 821.181 59.9446 822.206C60.0065 822.427 60.0622 822.625 60.1115 822.801L56.3652 823.822C43.9576 799.634 32.5524 759.533 23.3603 707.186C14.0814 654.346 7.07076 589.107 3.54211 515.327C-3.50455 367.989 3.33702 186.636 33.7043 2H42.6363Z" fill="url(#paint3_linear_824_19)" stroke="url(#paint4_linear_824_19)" stroke-width="2"/>
<defs>
<linearGradient id="paint0_linear_824_19" x1="126" y1="525" x2="-74" y2="564" gradientUnits="userSpaceOnUse">
<stop offset="0.529755" stop-color="#B0B0B0"/>
<stop offset="0.579084" stop-color="#1A1A1A"/>
<stop offset="0.825382" stop-color="#B0B0B0"/>
</linearGradient>
<linearGradient id="paint1_linear_824_19" x1="66.5" y1="156.5" x2="-19.5" y2="144.5" gradientUnits="userSpaceOnUse">
<stop offset="0.36962" stop-color="#B0B0B0"/>
<stop offset="0.448821" stop-color="#1A1A1A"/>
<stop offset="0.550951" stop-color="#B0B0B0"/>
</linearGradient>
<linearGradient id="paint2_linear_824_19" x1="181.482" y1="-68" x2="-126.018" y2="728" gradientUnits="userSpaceOnUse">
<stop stop-color="#494949"/>
<stop offset="0.467889" stop-color="#DFDFDF"/>
<stop offset="1" stop-color="#5C5C5C"/>
</linearGradient>
<linearGradient id="paint3_linear_824_19" x1="81.2094" y1="-6.50455" x2="83.7979" y2="1104.17" gradientUnits="userSpaceOnUse">
<stop stop-color="#8D8D8D"/>
<stop offset="0.255326" stop-color="#C1C1C1"/>
<stop offset="1" stop-color="#7A7A7A"/>
</linearGradient>
<linearGradient id="paint4_linear_824_19" x1="69" y1="302.5" x2="-117" y2="293.5" gradientUnits="userSpaceOnUse">
<stop offset="0.0412375" stop-color="#686868"/>
<stop offset="0.345782" stop-opacity="0"/>
</linearGradient>
</defs>
</svg>
