<svg width="66" height="993" viewBox="0 0 66 993" fill="none" xmlns="http://www.w3.org/2000/svg">
<path d="M46.001 222.5C30.8246 132.45 20.9635 83.7244 0.967285 0H13.4673C80.9763 224.669 83.0971 653.597 18.9673 991.997H5.96729C3.58285 993.666 42.2219 776.895 45.5015 717.5C46.4697 699.964 47.6297 688.05 41.0015 671.5L23.0015 626C19.262 617.167 17.559 611.731 17.5015 598.5C19.4522 460.497 19.7985 383.246 8.00133 247.5C7.35027 237.934 14.2559 237.041 19.5009 237H30.001C40.485 236.749 47.3757 233.662 46.001 222.5Z" fill="url(#paint0_radial_211_45)"/>
<defs>
<radialGradient id="paint0_radial_211_45" cx="0" cy="0" r="1" gradientUnits="userSpaceOnUse" gradientTransform="translate(81.4673 -0.000110592) rotate(99.3311) scale(1005.3 262.926)">
<stop offset="0.174693" stop-color="#4370A3"/>
<stop offset="0.359221" stop-color="#62A8EA"/>
<stop offset="0.694086" stop-color="#4370A3"/>
</radialGradient>
</defs>
</svg>
