<svg width="66" height="993" viewBox="0 0 66 993" fill="none" xmlns="http://www.w3.org/2000/svg">
<path d="M45.6895 222.5C30.5131 132.45 20.652 83.7244 0.655762 0H13.1558C80.6648 224.669 82.7856 653.597 18.6558 991.997H5.65576C3.27132 993.666 41.9104 776.895 45.1899 717.5C46.1582 699.964 47.3182 688.05 40.6899 671.5L22.6899 626C18.9505 617.167 17.2475 611.731 17.1899 598.5C19.1407 460.497 19.487 383.246 7.68981 247.5C7.03875 237.934 13.9444 237.041 19.1894 237H29.6895C40.1734 236.749 47.0642 233.662 45.6895 222.5Z" fill="url(#paint0_radial_211_77)"/>
<defs>
<radialGradient id="paint0_radial_211_77" cx="0" cy="0" r="1" gradientUnits="userSpaceOnUse" gradientTransform="translate(81.1558 -0.000110592) rotate(99.3311) scale(1005.3 262.926)">
<stop offset="0.174693" stop-color="#C38A36"/>
<stop offset="0.359221" stop-color="#E9BC4C"/>
<stop offset="0.694086" stop-color="#C38A36"/>
</radialGradient>
</defs>
</svg>
